<?xml version="1.0" standalone="no"?>
<!DOCTYPE svg PUBLIC "-//W3C//DTD SVG 20010904//EN"
 "http://www.w3.org/TR/2001/REC-SVG-20010904/DTD/svg10.dtd">
<svg version="1.0" xmlns="http://www.w3.org/2000/svg"
 width="1278.000000pt" height="1280.000000pt" viewBox="0 0 1278.000000 1280.000000"
 preserveAspectRatio="xMidYMid meet">

<g transform="translate(0.000000,1280.000000) scale(0.100000,-0.100000)"
fill="#000000" stroke="none">
<path d="M4480 12789 c-1181 -9 -1589 -19 -1780 -45 -544 -74 -1017 -264
-1431 -575 -612 -462 -989 -1062 -1144 -1824 -46 -227 -63 -390 -75 -695 -11
-287 -27 -1633 -35 -2955 -3 -484 -8 -960 -11 -1057 l-6 -178 6388 0 6387 0
-6 2043 c-7 2008 -11 2232 -42 2497 -70 581 -250 1062 -573 1530 -483 700
-1182 1106 -2095 1216 -378 45 -2680 63 -5577 43z m2331 -1078 c309 -67 573
-210 812 -441 142 -136 206 -215 305 -372 40 -64 79 -122 87 -128 7 -6 99 -20
205 -31 106 -10 231 -28 280 -38 235 -52 444 -156 603 -301 165 -152 297 -393
337 -616 16 -90 8 -287 -15 -374 -81 -300 -315 -580 -609 -730 -134 -68 -223
-94 -629 -185 -202 -45 -370 -85 -374 -89 -3 -3 -3 -9 0 -13 9 -9 509 -10 577
-1 30 4 61 3 69 -2 14 -8 54 -396 122 -1200 24 -286 21 -621 -5 -648 -26 -26
-552 -92 -1091 -137 -737 -61 -1741 -47 -2530 36 -313 32 -857 104 -959 125
l-28 6 5 152 c4 132 12 190 66 466 34 173 85 432 112 575 58 302 105 521 118
552 10 21 15 21 253 26 230 4 327 15 313 36 -2 5 -17 11 -32 13 -134 23 -597
122 -668 143 -420 122 -730 464 -811 891 -23 123 -15 346 15 459 54 196 149
361 296 511 183 187 387 292 654 338 194 33 526 10 544 -38 3 -7 -3 -48 -14
-92 -23 -97 -38 -283 -30 -384 l6 -75 38 170 c100 442 244 715 508 970 243
234 563 393 894 444 33 6 155 8 270 6 166 -2 230 -8 306 -24z"/>
<path d="M6288 8033 c-82 -94 -149 -460 -133 -723 7 -118 48 -337 70 -380 27
-52 73 -48 114 9 31 43 78 194 96 306 46 280 2 699 -81 782 -28 28 -46 29 -66
6z"/>
<path d="M5243 7990 c-34 -34 -83 -145 -117 -262 -43 -149 -58 -262 -63 -479
-5 -175 -3 -214 12 -265 9 -32 24 -67 32 -76 75 -84 197 139 250 455 25 148
25 468 0 557 -30 104 -61 124 -114 70z"/>
<path d="M7322 7981 c-27 -33 -34 -56 -52 -158 -22 -133 -26 -307 -10 -443 34
-278 107 -490 170 -490 83 0 144 278 120 544 -21 241 -51 380 -105 487 -17 34
-73 99 -85 99 -4 0 -21 -17 -38 -39z"/>
<path d="M8380 4405 c-399 -267 -735 -496 -747 -511 -14 -15 -23 -38 -23 -59
0 -18 29 -118 65 -221 36 -103 64 -191 63 -195 -2 -5 -52 -42 -112 -83 l-109
-75 -50 26 c-57 28 -67 23 -67 -37 0 -63 -29 -91 -227 -223 -103 -69 -338
-229 -522 -356 -266 -184 -340 -231 -366 -231 -34 0 -123 54 -473 289 -96 64
-210 138 -255 164 -117 70 -167 122 -167 176 0 19 -5 21 -64 18 l-64 -2 -118
80 c-64 44 -120 82 -125 85 -4 3 5 45 21 93 98 289 46 503 -173 719 -252 247
-593 379 -987 381 -284 1 -452 -78 -497 -232 -21 -74 -13 -257 17 -361 39
-137 166 -380 268 -515 205 -268 470 -415 752 -415 155 0 263 34 394 124 95
66 108 70 144 43 17 -12 61 -44 98 -72 37 -27 81 -63 97 -80 26 -26 29 -35 25
-81 l-4 -51 45 9 c85 16 43 44 564 -381 l226 -183 -27 -23 c-15 -12 -325 -223
-689 -469 -409 -276 -675 -462 -696 -486 -41 -48 -57 -98 -57 -176 0 -198 222
-335 398 -245 28 14 1136 932 1373 1137 14 12 89 -45 605 -454 324 -257 715
-568 868 -691 154 -123 298 -235 320 -247 61 -35 125 -32 211 10 116 56 164
128 165 247 0 86 -42 175 -103 219 -23 16 -431 282 -907 590 -476 309 -866
564 -867 568 -2 7 872 738 903 755 9 5 42 9 72 8 64 -1 72 6 72 68 0 40 5 49
45 87 25 23 70 61 100 84 l53 41 182 -120 c196 -130 216 -137 266 -99 16 13
323 274 682 581 544 465 651 561 643 575 -5 9 -22 32 -38 50 l-28 33 -602
-456 c-331 -250 -604 -455 -607 -455 -6 0 -49 70 -45 74 3 3 1158 934 1168
942 5 4 -51 74 -60 74 -7 0 -431 -310 -1048 -768 -84 -62 -159 -115 -165 -117
-6 -3 -24 14 -39 37 -24 34 -26 43 -15 53 7 7 270 210 583 450 314 240 578
444 587 453 16 16 15 19 -16 55 l-32 38 -614 -437 -614 -437 -28 34 c-15 18
-28 36 -28 40 0 4 268 216 595 471 327 255 594 465 594 468 0 3 -14 22 -32 42
l-32 38 -725 -485z m-4360 -684 c289 -206 545 -387 569 -403 57 -35 95 -35
152 0 85 55 146 140 222 309 11 25 12 20 15 -61 8 -245 -148 -450 -391 -513
-86 -22 -266 -13 -362 17 -138 44 -236 103 -353 214 -180 170 -303 398 -377
699 -29 114 -30 131 -12 120 6 -4 248 -176 537 -382z m4100 365 c0 -3 -244
-205 -263 -218 -6 -4 88 -138 226 -322 130 -174 237 -319 237 -324 0 -4 -22
-24 -49 -44 l-49 -37 -77 45 c-95 56 -221 175 -282 267 -52 78 -118 224 -135
297 -18 80 -12 88 139 187 117 77 241 153 251 153 1 0 2 -2 2 -4z m-1456
-1555 c3 -4 -49 -50 -115 -101 -111 -85 -122 -91 -137 -76 -15 15 -14 17 8 34
210 150 232 163 244 143z m-461 -270 c29 -21 475 -334 992 -696 517 -362 942
-660 944 -662 3 -2 -10 -19 -29 -38 -41 -43 -78 -52 -121 -29 -47 24 -1709
1326 -1788 1401 -75 71 -74 81 2 24z m-58 -137 c-6 -8 -289 -233 -630 -499
-673 -526 -632 -500 -660 -420 -18 54 -3 88 59 134 47 36 929 645 1096 758 41
28 86 53 100 55 32 5 48 -7 35 -28z"/>
</g>
</svg>
